<svg xmlns="http://www.w3.org/2000/svg" width="166" height="34" version="1.1" x="0px" y="0px" viewBox="0 0 195 40" overflow="visible" enable-background="new 0 0 195 40" xml:space="preserve"><defs></defs><g><path fill="#E94E1B" d="M34.0581055 37.28125H4.6899414C0.300293 37.3 0.2 33 0.2 32.8422852V4.6899414 C0.25 0.3 4.5 0.3 4.7 0.25h28.0039062c4.3901367 0 4.4 4.3 4.4 4.4399414v29.5151367 l2.3647461 2.3657227l-3.0766602 3.0756836L34.0581055 37.28125z"></path><path fill="#E3441B" d="M32.6943359 0.5c4.1235352 0 4.2 4 4.2 4.1899414v29.4116211v0.2070312 l0.1464844 0.1464844l2.1147461 2.1157227l-2.7231445 2.722168l-2.1147461-2.1152344L34.1616211 37.03125h-0.2070312H4.6899414 c-4.1230469 0-4.1889648-4.019043-4.1899414-4.1889648V4.6899414C0.5 0.6 4.5 0.5 4.7 0.5H32.6943359 M32.6943359 0H4.6899414C4.6899414 0 0 0 0 4.6899414v28.1523438c0 0 0 4.7 4.7 4.6889648h29.2646484L36.4228516 40 l3.4301758-3.4291992l-2.4682617-2.4692383V4.6899414C37.3847656 4.7 37.4 0 32.7 0L32.6943359 0z"></path></g><g><path fill="#FFFFFF" d="M18.3554688 25.8642578v-5.8110352h-4.3349609v5.3398438 c0 0.5341797-0.2504883 0.7861328-0.784668 0.7861328h-0.5654297c-0.5336914 0-0.7851562-0.2519531-0.7851562-0.7861328V12.1381836 c0-0.5332031 0.2514648-0.784668 0.7851562-0.784668h0.5029297c0.5336914 0 0.8 0.3 0.8 0.784668v4.6806641 h4.3354492v-5.1508789c0-2.7329102-1.3505859-4.0834961-4.0830078-4.0834961h-2.6386719 c-2.7324219 0-4.0834961 1.3505859-4.0834961 4.0834961v14.1962891c0 2.7 1.4 4.1 4.1 4.0830078h2.7011719 C17.0043945 29.9 18.4 28.6 18.4 25.9"></path><path fill="none" stroke="#DD4531" stroke-width="0.5" stroke-miterlimit="10" d="M18.3554688 25.8642578v-5.8110352h-4.3349609 v5.3398438c0 0.5341797-0.2504883 0.7861328-0.784668 0.7861328h-0.5654297c-0.5336914 0-0.7851562-0.2519531-0.7851562-0.7861328 V12.1381836c0-0.5332031 0.2514648-0.784668 0.7851562-0.784668h0.5029297c0.5336914 0 0.8 0.3 0.8 0.8 v4.6806641h4.3354492v-5.1508789c0-2.7329102-1.3505859-4.0834961-4.0830078-4.0834961h-2.6386719 c-2.7324219 0-4.0834961 1.3505859-4.0834961 4.0834961v14.1962891c0 2.7 1.4 4.1 4.1 4.0830078h2.7011719 C17.0043945 29.9 18.4 28.6 18.4 25.9"></path></g><g><path fill="#FFFFFF" d="M26.2836914 25.2631836c0 0.5429688-0.2548828 0.7983398-0.7988281 0.7983398h-1.1176758v-5.6547852 h1.1176758c0.5439453 0 0.8 0.3 0.8 0.7988281V25.2631836z M26.2202148 15.9 c0 0.5429688-0.2553711 0.7988281-0.7988281 0.7988281h-1.0541992v-5.3027344h1.0541992 c0.543457 0 0.8 0.3 0.8 0.7988281V15.8706055z M30.7246094 25.7426758v-4.5371094 c0-1.6293945-0.574707-2.4912109-1.9165039-2.875c1.1816406-0.4467773 1.8525391-1.4057617 1.8525391-3.3222656v-3.3227539 c0-2.7792969-1.3740234-4.152832-4.152832-4.152832h-6.581543v22.362793h6.6450195 C29.3500977 29.9 30.7 28.5 30.7 25.7"></path><path fill="none" stroke="#DD4531" stroke-width="0.5" stroke-miterlimit="10" d="M26.2836914 25.3 c0 0.5429688-0.2548828 0.7983398-0.7988281 0.7983398h-1.1176758v-5.6547852h1.1176758 c0.5439453 0 0.8 0.3 0.8 0.7988281V25.2631836z M26.2202148 15.9 c0 0.5429688-0.2553711 0.7988281-0.7988281 0.7988281h-1.0541992v-5.3027344h1.0541992 c0.543457 0 0.8 0.3 0.8 0.7988281V15.8706055z M30.7246094 25.7426758v-4.5371094 c0-1.6293945-0.574707-2.4912109-1.9165039-2.875c1.1816406-0.4467773 1.8525391-1.4057617 1.8525391-3.3222656v-3.3227539 c0-2.7792969-1.3740234-4.152832-4.152832-4.152832h-6.581543v22.362793h6.6450195 C29.3500977 29.9 30.7 28.5 30.7 25.7"></path></g><linearGradient id="SVGID_1_" gradientUnits="userSpaceOnUse" x1="44.6" y1="18.8" x2="194.9" y2="18.8"><stop offset="0" style="stop-color:#3C3C3C"></stop><stop offset="0.9938651" style="stop-color:#382E30"></stop></linearGradient><path fill="url(#SVGID_1_)" stroke="#333333" stroke-width="0.5" stroke-miterlimit="10" d="M55.6567383 25.2392578v-5.902832 H51.253418v5.4248047c0 0.5419922-0.2558594 0.7978516-0.7983398 0.7978516h-0.574707 c-0.5424805 0-0.7973633-0.2558594-0.7973633-0.7978516V11.293457c0-0.5424805 0.2548828-0.7973633 0.7973633-0.7973633h0.5107422 c0.5424805 0 0.8 0.3 0.8 0.7973633v4.7553711h4.4038086v-5.2333984 c0-2.7763672-1.3720703-4.1494141-4.1484375-4.1494141h-2.6811523c-2.7753906 0-4.1484375 1.3730469-4.1484375 4.1494141v14.4238281 c0 2.8 1.4 4.1 4.1 4.1484375h2.7451172C54.284668 29.4 55.7 28 55.7 25.2 M65.0498047 16.1445312c0 0.5429688-0.2553711 0.7978516-0.7983398 0.7978516h-1.0849609v-6.1914062h1.0849609 c0.5429688 0 0.8 0.3 0.8 0.7978516V16.1445312z M65.081543 29.1962891h4.4677734v-7.6904297 c0-1.6274414-0.574707-2.4887695-1.9467773-2.8730469c1.2128906-0.4462891 1.9150391-1.4033203 1.9150391-3.3183594v-4.3081055 c0-2.7758789-1.3720703-4.1489258-4.1494141-4.1489258h-6.6694336v22.3388672h4.4677734v-8.456543h1.1171875 c0.5424805 0 0.8 0.3 0.8 0.7978516V29.1962891z M72.5917969 29.1962891h8.3603516v-3.9887695h-3.8925781 v-5.3608398h3.6694336v-3.9887695h-3.6694336v-5.0102539h3.8286133V6.8574219h-8.2963867V29.1962891z M90.090332 22 h-2.0107422l0.9892578-9.7651367L90.090332 22.0483398z M90.8237305 29.1962891h4.4365234L92.3237305 6.8574219h-6.0947266 l-2.9365234 22.3388672h4.0532227l0.3188477-3.2543945h2.8081055L90.8237305 29.1962891z M103.1850586 10.8476562h2.7128906 V6.8574219h-9.8935547v3.9902344h2.7128906v18.3486328h4.4677734V10.8476562z M108.5883789 29.1962891h4.4692383V6.8574219 h-4.4692383V29.1962891z M124.4604492 29.1962891l2.9995117-22.3388672h-4.1484375l-1.5957031 15.7338867l-1.5952148-15.7338867 h-4.5322266l3 22.3388672H124.4604492z M129.9604492 29.1962891h8.3608398v-3.9887695h-3.8945312v-5.3608398h3.6704102v-3.9887695 h-3.6704102v-5.0102539h3.8310547V6.8574219h-8.2973633V29.1962891z M151.8959961 24.6 c0 0.5419922-0.2558594 0.796875-0.7998047 0.796875h-1.1162109v-5.6484375h1.1162109 c0.5439453 0 0.8 0.3 0.8 0.7978516V24.5698242z M151.831543 15.2 c0 0.5424805-0.2548828 0.7973633-0.7978516 0.7973633h-1.0537109v-5.296875h1.0537109 c0.5429688 0 0.8 0.3 0.8 0.796875V15.1875z M156.3300781 25.0483398v-4.5322266 c0-1.6264648-0.5742188-2.4892578-1.9130859-2.8720703c1.1806641-0.4458008 1.8496094-1.4038086 1.8496094-3.3183594v-3.3193359 c0-2.7758789-1.3710938-4.1489258-4.1479492-4.1489258h-6.5732422v22.3388672h6.6376953 C154.9580078 29.2 156.3 27.8 156.3 25 M159.3095703 29.1962891H167v-3.9887695h-3.2246094 V6.8574219h-4.4658203V29.1962891z M175.7207031 24.8876953c0 0.8876953-0.8867188 0.8876953-0.8867188 0.8876953h-0.78125 c-0.8867188 0-0.8867188-0.8876953-0.8867188-0.8876953V11.1513672c0-0.8881836 0.8867188-0.8881836 0.8867188-0.8881836h0.78125 c0.8867188 0 0.9 0.9 0.9 0.8881836V24.8876953z M180.0292969 25.8217773v-15.605957 c0 0 0-3.5498047-3.5507812-3.5498047h-4.0703125c0 0-3.5488281 0-3.5488281 3.5498047v15.605957 c0 0 0 3.5 3.5 3.5498047h4.0703125C176.4785156 29.4 180 29.4 180 25.8 M189.0800781 24.8876953c0 0.8876953-0.8867188 0.8876953-0.8867188 0.8876953h-0.78125 c-0.8867188 0-0.8867188-0.8876953-0.8867188-0.8876953V11.1513672c0-0.8881836 0.8867188-0.8881836 0.8867188-0.8881836h0.78125 c0.8867188 0 0.9 0.9 0.9 0.8881836V24.8876953z M194.8808594 28.7895508l-1.4921875-1.4931641V10.2158203 c0 0 0-3.5498047-3.5507812-3.5498047h-4.0703125c0 0-3.5488281 0-3.5488281 3.5498047v15.605957 c0 0 0 3.5 3.5 3.5498047h5.546875l1.4921875 1.4936523L194.8808594 28.7895508z"></path></svg>
