<svg xmlns="http://www.w3.org/2000/svg" xmlns:xlink="http://www.w3.org/1999/xlink" preserveAspectRatio="xMidYMid" width="123" height="36" viewBox="0 0 123 36">
  <path d="M105.031,35.325 C105.031,35.325 94.716,35.325 94.716,35.325 C94.716,35.325 94.716,0.576 94.716,0.576 C94.716,0.576 105.031,0.576 105.031,0.576 C115.816,0.576 122.328,8.703 122.328,17.977 C122.328,27.354 115.816,35.325 105.031,35.325 ZM105.031,2.139 C105.031,2.139 96.383,2.139 96.383,2.139 C96.383,2.139 96.383,33.762 96.383,33.762 C96.383,33.762 105.031,33.762 105.031,33.762 C114.878,33.762 120.505,26.781 120.505,17.977 C120.505,9.276 114.878,2.139 105.031,2.139 ZM78.669,0.576 C78.669,0.576 80.337,0.576 80.337,0.576 C80.337,0.576 80.337,35.325 80.337,35.325 C80.337,35.325 78.669,35.325 78.669,35.325 C78.669,35.325 78.669,0.576 78.669,0.576 ZM63.873,35.325 C63.873,35.325 53.297,20.321 53.297,20.321 C53.297,20.321 44.961,20.321 44.961,20.321 C44.961,20.321 44.961,35.325 44.961,35.325 C44.961,35.325 43.294,35.325 43.294,35.325 C43.294,35.325 43.294,0.576 43.294,0.576 C43.294,0.576 55.277,0.576 55.277,0.576 C60.903,0.576 65.540,4.066 65.540,10.422 C65.540,16.778 60.903,20.321 55.277,20.321 C55.277,20.321 66.009,35.325 66.009,35.325 C66.009,35.325 63.873,35.325 63.873,35.325 ZM63.717,10.422 C63.717,5.629 60.382,2.139 55.277,2.139 C55.277,2.139 44.961,2.139 44.961,2.139 C44.961,2.139 44.961,18.758 44.961,18.758 C44.961,18.758 55.277,18.758 55.277,18.758 C60.382,18.758 63.717,15.215 63.717,10.422 ZM17.348,36.003 C7.710,36.003 -0.000,28.657 -0.000,17.977 C-0.000,7.296 7.710,0.002 17.348,0.002 C22.610,0.002 26.674,1.878 30.061,5.369 C30.061,5.369 28.966,6.515 28.966,6.515 C26.257,3.441 21.985,1.565 17.348,1.565 C8.648,1.565 1.823,8.182 1.823,17.977 C1.823,27.667 8.648,34.440 17.348,34.440 C22.454,34.440 26.361,31.887 28.393,29.751 C28.393,29.751 28.393,20.217 28.393,20.217 C28.393,20.217 14.066,20.217 14.066,20.217 C14.066,20.217 14.066,18.654 14.066,18.654 C14.066,18.654 30.061,18.654 30.061,18.654 C30.061,18.654 30.061,30.428 30.061,30.428 C27.091,33.762 22.558,36.003 17.348,36.003 Z" id="path-1" fill="#f0f6f7" fill-rule="evenodd"/>
</svg>
