<svg xmlns="http://www.w3.org/2000/svg" xmlns:xlink="http://www.w3.org/1999/xlink" preserveAspectRatio="xMidYMid" width="142" height="36" viewBox="0 0 142 36">
  <path d="M139.754,29.616 C139.754,29.616 128.456,8.218 128.456,8.218 C128.456,8.218 118.872,26.196 118.872,26.196 C118.872,26.196 117.907,24.409 117.907,24.409 C117.907,24.409 127.858,5.997 127.858,5.997 C127.858,5.997 128.999,5.997 128.999,5.997 C128.999,5.997 141.710,29.616 141.710,29.616 C141.710,29.616 139.754,29.616 139.754,29.616 ZM102.747,6.677 C102.747,6.677 103.115,5.997 103.115,5.997 C103.115,5.997 104.256,5.997 104.256,5.997 C104.256,5.997 116.966,29.616 116.966,29.616 C116.966,29.616 115.092,29.616 115.092,29.616 C115.092,29.616 102.747,6.677 102.747,6.677 ZM90.431,29.616 C90.431,29.616 90.764,28.849 90.764,28.849 C90.764,28.849 100.796,10.287 100.796,10.287 C100.796,10.287 101.697,11.998 101.697,11.998 C101.697,11.998 92.305,29.616 92.305,29.616 C92.305,29.616 90.431,29.616 90.431,29.616 ZM69.076,29.206 C69.076,29.206 90.400,17.977 90.400,17.977 C90.400,17.977 72.297,8.353 72.297,8.353 C72.297,8.353 73.206,6.923 73.206,6.923 C73.206,6.923 92.613,17.383 92.613,17.383 C92.613,17.383 92.613,18.517 92.613,18.517 C92.613,18.517 69.076,31.149 69.076,31.149 C69.076,31.149 69.076,29.206 69.076,29.206 ZM48.819,36.008 C48.819,36.008 71.817,0.000 71.817,0.000 C71.817,0.000 73.814,0.000 73.814,0.000 C73.814,0.000 50.763,36.008 50.763,36.008 C50.763,36.008 48.819,36.008 48.819,36.008 ZM24.311,17.383 C24.311,17.383 47.848,4.697 47.848,4.697 C47.848,4.697 47.848,6.640 47.848,6.640 C47.848,6.640 26.524,17.977 26.524,17.977 C26.524,17.977 47.848,29.206 47.848,29.206 C47.848,29.206 47.848,31.149 47.848,31.149 C47.848,31.149 24.311,18.517 24.311,18.517 C24.311,18.517 24.311,17.383 24.311,17.383 ZM24.663,29.618 C24.663,29.618 15.238,11.938 15.238,11.938 C15.238,11.938 16.154,10.255 16.154,10.255 C16.154,10.255 26.538,29.618 26.538,29.618 C26.538,29.618 24.663,29.618 24.663,29.618 ZM1.958,29.618 C1.958,29.618 1.877,29.618 1.877,29.618 C1.877,29.618 1.958,29.618 1.958,29.618 C1.958,29.618 1.958,29.618 1.958,29.618 ZM0.002,29.618 C0.002,29.618 12.713,5.999 12.713,5.999 C12.713,5.999 13.854,5.999 13.854,5.999 C13.854,5.999 14.222,6.679 14.222,6.679 C14.222,6.679 1.877,29.618 1.877,29.618 C1.877,29.618 0.002,29.618 0.002,29.618 Z" id="path-1" fill="#f0f6f7" fill-rule="evenodd"/>
</svg>
